<?xml version="1.0" encoding="iso-8859-1"?>
<!DOCTYPE svg PUBLIC "-//W3C//DTD SVG 1.1//EN" "http://www.w3.org/Graphics/SVG/1.1/DTD/svg11.dtd">
<svg 
 version="1.1" xmlns="http://www.w3.org/2000/svg" xmlns:xlink="http://www.w3.org/1999/xlink" x="0px" y="0px" width="512px"
	 height="512px" viewBox="0 0 512 512" style="enable-background:new 0 0 512 512;" xml:space="preserve"
><g id="7935ec95c421cee6d86eb22ecd154451"><g></g><g fill="#000000"><path style="display: inline;" d="M218.526,196.103c-18.474-16.919-41.762-25.269-64.983-25.269
		c-26.045,0-52.017,10.513-70.994,31.235c-35.9,39.197-33.232,100.074,5.966,135.978c18.475,16.919,41.755,25.27,64.977,25.27
		c22.926,0,45.777-8.15,63.867-24.228l64.26,58.855l13.491-14.726l-64.259-58.856C259.897,285.254,255.232,229.725,218.526,196.103z
		 M209.041,317.931c-14.224,15.533-34.473,24.441-55.55,24.441c-18.86,0-36.906-7.023-50.827-19.769
		c-14.838-13.589-23.487-32.138-24.367-52.228c-0.888-20.094,6.114-39.327,19.694-54.161c14.224-15.528,34.474-24.438,55.559-24.438
		l0,0c18.859,0,36.906,7.02,50.834,19.77C234.998,239.588,237.09,287.316,209.041,317.931z M454.724,141.498v351.076
		c0,10.409-8.517,18.926-18.927,18.926H76.205c-10.409,0-18.926-8.517-18.926-18.926v-56.777h37.852v37.852h321.741V151.908h-86.109
		c-15.097,0-27.447-12.354-27.447-27.446v-86.11H95.131v94.63H57.279V19.425C57.279,9.017,65.795,0.5,76.205,0.5h236.101v0.066
		c3.017,0.277,6.587,2.24,10.421,6.069l125.86,125.861c3.246,3.246,5.153,6.307,5.833,9.001H454.724z"></path></g></g></svg>